# xmcd
#
# Track frame offsets: 
#        150
#        53576
#        110550
#        134673
#        151663
#        194395
#        235895
#        257578
#        297084
#
# Disc length: 4559 seconds
#
# Revision: 2
# Processed by: cddbd v1.5.2PL0 Copyright (c) Steve Scherf et al.
# Submitted via: ExactAudioCopy v1.3
#
DISCID=7911cd09
DTITLE=Royal Concertgebouw Orchestra - RCO 125 anniversary edition - Th
DTITLE=e Radio Legacy, CD 107 [1990-2000]
DYEAR=2013
DGENRE=Classical
TTITLE0=Ludwig van Beethoven: Sinfonía No. 6 en Fa Mayor 'Pastoral' (1
TTITLE0=808), op. 68 - I. Erwachen heiterer Empfindungen bei der Ankun
TTITLE0=ft auf dem Lande. Allegro ma non troppo
TTITLE1=Ludwig van Beethoven: Sinfonía No. 6 en Fa Mayor 'Pastoral' (1
TTITLE1=808), op. 68 - II. Szene am Bach. Andante molto mosso
TTITLE2=Ludwig van Beethoven: Sinfonía No. 6 en Fa Mayor 'Pastoral' (1
TTITLE2=808), op. 68 - III. Lustiges Zusammensein der Landleute. Alleg
TTITLE2=ro
TTITLE3=Ludwig van Beethoven: Sinfonía No. 6 en Fa Mayor 'Pastoral' (1
TTITLE3=808), op. 68 - IV. Gewitter. Sturm. Allegro 
TTITLE4=Ludwig van Beethoven: Sinfonía No. 6 en Fa Mayor 'Pastoral' (1
TTITLE4=808), op. 68 - V. Hirtengesang. Frohe und dankbare Gefühle nac
TTITLE4=h dem Sturm. Allegretto
TTITLE5=Jean Sibelius: Sinfonía No. 4 en La menor (1910-1911), op. 63 
TTITLE5=I. Tempo molto moderato, quasi adagio
TTITLE6=Jean Sibelius: Sinfonía No. 4 en La menor (1910-1911), op. 63 
TTITLE6=II. Allegro molto vivace
TTITLE7=Jean Sibelius: Sinfonía No. 4 en La menor (1910-1911), op. 63 
TTITLE7=III. Il tempo largo
TTITLE8=Jean Sibelius: Sinfonía No. 4 en La menor (1910-1911), op. 63 
TTITLE8=IV. Allegro
EXTD=
EXTT0=
EXTT1=
EXTT2=
EXTT3=
EXTT4=
EXTT5=
EXTT6=
EXTT7=
EXTT8=
PLAYORDER=
